<?xml version="1.0" standalone="no"?><?xml-stylesheet type="text/css" href="/2.0/styles/v2.css"?><!DOCTYPE svg PUBLIC "-//W3C//DTD SVG 1.1//EN" "http://www.w3.org/Graphics/SVG/1.1/DTD/svg11.dtd"><svg id="Layer_1" data-name="Layer 1" xmlns="http://www.w3.org/2000/svg" viewBox="0 0 127.06 16.5"><title>penncollege</title><path class="c1" d="M0,16.13V0.38H4.39c1.43,0,3.49.13,4.51,1.3a4.82,4.82,0,0,1,1,3.42c0,1.7-.4,3.61-2.08,4.39C6.57,10.12,5.08,9.93,3.7,10v6.13H0Zm3.7-9a3.38,3.38,0,0,0,2.08-.4,2.39,2.39,0,0,0,.46-1.6A2,2,0,0,0,5.55,3.3,4.81,4.81,0,0,0,4.1,3.17H3.7v4Zm7.83,9V0.38H20V3.53H15.22v2.9h4.62V9.57H15.22V13h5v3.15H11.53v0ZM25.18,7.31h0l0.34,8.78H22V0.38h3.8l2.86,8.8h0.06l-0.36-8.8h3.51V16.13H28Zm11.67,0h0l0.34,8.78H33.64V0.38h3.8l2.86,8.8h0.06L40,0.38h3.51V16.13H39.73ZM56.78,5.88v-1c0-1.34-.48-2-1.18-2-1.15,0-1.43.61-1.43,1.64v7.79a1.2,1.2,0,0,0,1.32,1.41c1.26,0,1.36-1.3,1.36-2.27V10h3.7v1.9c0,2.71-1.55,4.6-5.33,4.6-3.4,0-4.72-1.81-4.72-5V5c0-3.42,1.57-5,5-5,3.15,0,5,1.34,5,4.56V5.88H56.78ZM72.2,11.11c0,3.55-1.24,5.4-5,5.4s-5-1.85-5-5.4V4.7c0-3,1.81-4.7,5-4.7s5,1.68,5,4.7v6.4h0ZM68.5,5c0-1-.08-2.12-1.3-2.12S65.88,4,65.88,5v6.47c0,0.9.15,2.25,1.34,2.25s1.28-1.34,1.28-2.25V5Zm5.29,11.13V0.38h3.7V13H82v3.15H73.79v0Zm9.33,0V0.38h3.7V13h4.51v3.15H83.12v0Zm9.51,0V0.38h8.46V3.53H96.33v2.9H101V9.57H96.33V13h5v3.15h-8.7v0Zm17.77,0-0.17-1.41h0A3.1,3.1,0,0,1,107,16.5c-3.13,0-4.14-2.16-4.14-5V5c0-3.42,1.57-5,5-5,3.15,0,5,1.34,5,4.56V5.73h-3.7V4.87c0-1.34-.17-2-1.15-2-1.15,0-1.43.61-1.43,1.64V12.3a1.22,1.22,0,0,0,1.36,1.41c1.26,0,1.3-1,1.3-2v-1.3H107.9V7.58h5v8.57h-2.5Zm4.41,0V0.38h8.46V3.53H118.5v2.9h4.62V9.57H118.5V13h5v3.15h-8.71Z" fill="white"/></svg>